<svg id="Layer_1" data-name="Layer 1" xmlns="http://www.w3.org/2000/svg" viewBox="0 0 512 512"><defs><style>.cls-1{fill:#141f38;}</style></defs><title>alien_1_style_2</title><path class="cls-1" d="M498.74,433.46A70.75,70.75,0,0,0,460.8,378.9V204.8C460.8,91.69,369.11,0,256,0h0C142.89,0,51.2,91.69,51.2,204.8V378.9A70.39,70.39,0,0,0,83.2,512a69.93,69.93,0,0,0,42.23-14.11,25.81,25.81,0,0,1,30.75,0,70.24,70.24,0,0,0,84.45,0,25.81,25.81,0,0,1,30.75,0,70.24,70.24,0,0,0,84.45,0,25.81,25.81,0,0,1,30.75,0,70.37,70.37,0,0,0,112.17-64.43Zm-36.53,38a44.88,44.88,0,0,1-33.41,15,44.25,44.25,0,0,1-26.83-9,51.4,51.4,0,0,0-61.55,0,44.64,44.64,0,0,1-53.65,0,51.4,51.4,0,0,0-61.55,0,44.64,44.64,0,0,1-53.65,0,51.4,51.4,0,0,0-61.55,0,44.25,44.25,0,0,1-26.82,9,44.79,44.79,0,0,1-20.28-84.74l13.88-7.15V204.8C76.8,106,157.19,25.6,256,25.6S435.2,106,435.2,204.8V394.51l13.88,7.15a45.28,45.28,0,0,1,24.22,34.65A44.56,44.56,0,0,1,462.21,471.44ZM256,140.8a89.6,89.6,0,1,0,89.6,89.6A89.6,89.6,0,0,0,256,140.8Zm0,153.6a64,64,0,1,1,64-64A64.07,64.07,0,0,1,256,294.4ZM169,135.68a12.81,12.81,0,0,1,2.55-17.93,140.83,140.83,0,0,1,169,0,12.8,12.8,0,1,1-15.37,20.46,115.23,115.23,0,0,0-138.24,0A12.82,12.82,0,0,1,169,135.68ZM256,192a38.4,38.4,0,1,0,38.4,38.4A38.4,38.4,0,0,0,256,192Zm0,51.2a12.8,12.8,0,1,1,12.8-12.8A12.81,12.81,0,0,1,256,243.2Zm38.4,128A12.8,12.8,0,0,1,281.6,384H230.4a12.8,12.8,0,1,1,0-25.6h51.2A12.8,12.8,0,0,1,294.4,371.2Z"/></svg>