<svg id="Layer_1" data-name="Layer 1" xmlns="http://www.w3.org/2000/svg" viewBox="0 0 512 512"><defs><style>.cls-1{fill:#141f38;}</style></defs><title>alien_1_style_1</title><path class="cls-1" d="M475.16,403.56a63.09,63.09,0,0,0-33.84-48.65V199.64A182.64,182.64,0,0,0,258.68,17h0A182.64,182.64,0,0,0,76,199.64V354.9a62.77,62.77,0,0,0,28.54,118.7A62.36,62.36,0,0,0,142.23,461a23,23,0,0,1,27.42,0A62.64,62.64,0,0,0,245,461a23,23,0,0,1,27.42,0,62.64,62.64,0,0,0,75.31,0,23,23,0,0,1,27.42,0,62.76,62.76,0,0,0,100-57.46ZM281.51,359.45H235.85a11.42,11.42,0,1,1,0-22.83h45.66a11.42,11.42,0,1,1,0,22.83Zm-22.83-57.08a79.91,79.91,0,1,1,79.91-79.91A79.91,79.91,0,0,1,258.68,302.37ZM336.3,138a11.41,11.41,0,0,1-16,2.27,102.76,102.76,0,0,0-123.28,0A11.42,11.42,0,0,1,183.33,122,125.59,125.59,0,0,1,334,122,11.4,11.4,0,0,1,336.3,138Zm-77.63,50.22a34.25,34.25,0,1,0,34.25,34.25A34.25,34.25,0,0,0,258.68,188.22Zm0,45.66a11.42,11.42,0,1,1,11.42-11.42A11.43,11.43,0,0,1,258.68,233.88Z"/></svg>